<svg xmlns="http://www.w3.org/2000/svg" width="250.332" height="50" viewBox="0 0 250.332 50">
  <path id="footer_logo_1_" data-name="footer_logo (1)" d="M8.728,26.443c0,1.955.1,3.352.7,4,.5.559,1.2.838,4.515.838,4.615,0,5.317-.186,7.223-4.19a1.117,1.117,0,0,1,1.3.279,32.8,32.8,0,0,1-1.806,5.68c-1.806-.093-5.417-.093-10.032-.093H6.32c-2.107,0-4.214,0-6.019.093-.3-.186-.5-.931-.1-1.117l1.3-.279c2.006-.279,2.307-.372,2.307-4.376V12.849c0-4-.4-4.19-2.307-4.469L.3,8.194A.73.73,0,0,1,.4,7.076c2.107.093,4.013.093,5.919.093,1.806,0,3.712,0,5.618-.093a.73.73,0,0,1,.1,1.117l-1,.186c-2.006.279-2.307.372-2.307,4.469V26.443ZM25.181,9.683c0,2.98-2.809,5.121-5.718,5.773a1.053,1.053,0,0,1-.3-1.024c1.806-.745,3.411-1.862,3.411-3.538,0-1.3-1.3-1.862-2.307-2.048a1.459,1.459,0,0,1-1.3-1.4c0-.652.5-1.862,2.408-1.862a4.181,4.181,0,0,1,3.812,4.1M29.7,17.132C29.7,7.449,37.521,0,48.356,0,60.5,0,66.515,8.1,66.515,16.667c0,9.87-8.026,16.946-18.159,16.946-11.638.093-18.66-7.635-18.66-16.48m31.6,1.024c0-8.007-3.812-16.667-13.845-16.667-5.417,0-12.54,3.445-12.54,14.153,0,7.169,3.812,16.574,14.146,16.574,6.22-.093,12.24-4.469,12.24-14.06M96.612,13.78a1.127,1.127,0,0,1-1.3.093c-.7-2.421-2.608-5.68-8.126-5.68-5.317,0-10.735,3.538-10.735,11.453,0,8.287,5.618,12.384,11.036,12.384a8.929,8.929,0,0,0,8.728-5.773.911.911,0,0,1,1.3.186A14.569,14.569,0,0,1,95.508,32.4c-.5.093-1,.279-1.5.372a26.229,26.229,0,0,1-6.521.931A20,20,0,0,1,76.748,31.1a11.958,11.958,0,0,1-5.919-10.708,12.456,12.456,0,0,1,5.317-10.335A20.777,20.777,0,0,1,87.683,6.7a33.907,33.907,0,0,1,7.223.838c.5.093.8.186,1.2.279a50.171,50.171,0,0,0,.5,5.959m29.094,0a1.127,1.127,0,0,1-1.3.093c-.7-2.421-2.608-5.68-8.126-5.68-5.317,0-10.735,3.538-10.735,11.453,0,8.287,5.618,12.384,11.036,12.384a8.929,8.929,0,0,0,8.728-5.773.911.911,0,0,1,1.3.186A14.569,14.569,0,0,1,124.6,32.4c-.5.093-1,.279-1.5.372a26.229,26.229,0,0,1-6.521.931A20,20,0,0,1,105.842,31.1a11.958,11.958,0,0,1-5.919-10.708,12.456,12.456,0,0,1,5.317-10.335A20.777,20.777,0,0,1,116.777,6.7,33.907,33.907,0,0,1,124,7.542c.5.093.8.186,1.2.279a50.171,50.171,0,0,0,.5,5.959m11.337,13.5c0,4.1.4,4.283,2.307,4.469l.9.093a.725.725,0,0,1-.1,1.117c-1.806-.093-3.712-.093-5.618-.093s-3.812,0-5.618.093a.8.8,0,0,1-.1-1.117l.9-.093c2.006-.279,2.307-.372,2.307-4.469V12.849c0-4.1-.4-4.283-2.307-4.469l-.9-.093a.725.725,0,0,1,.1-1.117c1.806.093,3.712.093,5.618.093,1.806,0,3.712,0,5.618-.093a.8.8,0,0,1,.1,1.117l-.9.093c-2.006.279-2.307.372-2.307,4.469V27.281ZM154,10.428c0-1.676,0-1.676-1.1-1.676h-2.408c-3.812,0-5.016.466-6.521,3.538-.3.279-1.2.093-1.3-.279.7-2.142,1.3-4.469,1.605-5.866a.8.8,0,0,1,.5-.186c.2,0,.3,0,.4.186.2.931.8,1.024,3.612,1.024h17.155c2.006,0,2.709-.093,3.21-1.024a1.107,1.107,0,0,1,.5-.186c.3,0,.5.093.5.186a22.628,22.628,0,0,0-.6,6.145,1.1,1.1,0,0,1-1.3.093c-.5-3.073-1.3-3.818-5.819-3.818h-2.408c-1.1,0-1.1.093-1.1,1.676V27.095c0,4.1.4,4.283,2.307,4.469l1.5.186a.725.725,0,0,1-.1,1.117c-2.408-.093-4.314-.093-6.12-.093s-3.812,0-6.521.093c-.3-.186-.4-.931-.1-1.117l1.806-.186c2.006-.186,2.307-.279,2.307-4.376V10.428Zm21.57,12.942c-1.1,0-1,0-1.4,1.024l-1.705,4.655c-.8,2.328-.7,2.421.9,2.607l1.2.186a.725.725,0,0,1-.1,1.117c-1.3-.093-2.709-.093-4.414-.093-1.4,0-2.709,0-4.113.093-.3-.186-.3-.745,0-1.117l1.3-.186a2.479,2.479,0,0,0,2.307-1.769c.5-1.024,1.2-2.607,2.006-4.749l5.718-13.873a6.509,6.509,0,0,0,.8-2.886c1.5-.279,2.809-1.862,2.909-1.862a.945.945,0,0,1,.7.279c.7,1.769,1.2,3.538,1.906,5.307L189.612,28.4c1,2.607,1.2,2.886,3.311,3.259l.6.093a.8.8,0,0,1,0,1.117c-1.705-.093-3.311-.093-5.417-.093-1.806,0-3.612.093-5.117.093-.3-.186-.4-.931-.1-1.117l.9-.093c1.5-.186,1.605-.372,1.1-2.048L182.89,24.3c-.4-1.024-.5-1.024-1.705-1.024h-5.618Zm5.016-1.769c1.2,0,1.3-.093,1-1.024l-1.806-4.655a16.881,16.881,0,0,0-1.2-3.073c-.2.279-.5,1.21-1.3,3.073l-1.706,4.562c-.5,1.117-.3,1.117.7,1.117Zm40.631,4.655c0,1.21,0,5.959.1,6.89a1.6,1.6,0,0,1-1.4.559c-.7-.838-1.906-2.142-4.916-5.307L205.162,17.97c-2.709-2.886-4.113-4.283-4.816-4.935-.1,0-.1.466-.1,2.514v7.635c0,2.886,0,6.518.8,7.635a2.735,2.735,0,0,0,2.107.931l.9.093c.4.279.3,1.024-.1,1.117-1.5-.093-3.21-.093-4.816-.093-1.806,0-2.909,0-4.314.093a.8.8,0,0,1-.1-1.117l.9-.186c.8-.093,1.5-.279,1.806-.931.5-1.21.5-4.562.5-7.635V13.873c0-3.073,0-3.631-1.4-4.749a6.151,6.151,0,0,0-2.207-.745l-.6-.093c-.3-.279-.3-1.024.2-1.117a45.743,45.743,0,0,0,4.916.093c.9,0,1.906,0,2.909-.093.7,1.676,5.317,6.611,6.722,8.1l4.214,4.19c1.806,1.769,5.618,5.959,6.12,6.145.1-.093.1-.279.1-.931V17.039c0-2.886,0-6.518-.8-7.635A2.576,2.576,0,0,0,216,8.473l-1-.093c-.4-.279-.3-1.024.1-1.117,1.605.093,3.21.093,4.816.093,1.806,0,2.909,0,4.414-.093a.8.8,0,0,1,.1,1.117l-1,.186c-.8.093-1.5.279-1.806.931-.6,1.21-.6,4.562-.6,7.635v9.125Zm9.631-13.408c0-4.1-.4-4.283-2.307-4.469l-.7-.093a.725.725,0,0,1,.1-1.117c1.605.093,3.612.093,5.417.093h8.026c2.709,0,5.117,0,5.618-.093.2.652.4,3.724.7,5.4a1.306,1.306,0,0,1-1.3.186c-.7-2.235-1.3-3.259-2.608-3.538a12.862,12.862,0,0,0-3.311-.372h-2.809c-1.806,0-1.806.093-1.806,2.328v6.611c0,1.024,0,1.024,1,1.024h2.006c3.612,0,4.314,0,4.615-1.676l.3-1.3a1.117,1.117,0,0,1,1.3,0c0,1.024-.1,2.421-.1,3.911s.1,2.886.1,4.1a1.117,1.117,0,0,1-1.3,0l-.3-1.583c-.3-1.676-1-1.676-4.615-1.676h-2.006c-1,0-1,.093-1,1.024v4.935c0,1.955.1,3.352.7,4,.5.559,1.2.838,4.715.838,5.317.093,6.22-1.024,7.725-4.19a.914.914,0,0,1,1.3.279,25.965,25.965,0,0,1-1.806,5.68c-1.806-.093-5.417-.093-10.333-.093h-4.816c-1.806,0-4.414,0-6.32.093a.8.8,0,0,1-.1-1.117l1.5-.186c2.006-.186,2.307-.279,2.307-4.469V12.849ZM47.453,42.458c0-1.49-.1-1.49-.8-1.583h-.2c-.1-.093-.1-.372,0-.372h6.822c.1.279.1,1.3.2,1.955-.1.093-.4.186-.5.093-.2-.838-.5-1.117-.9-1.3a4.836,4.836,0,0,0-1.2-.093h-1c-.6,0-.6,0-.6.838V44.32c0,.372,0,.372.4.372h.7c1.3,0,1.605,0,1.706-.652l.1-.466a.485.485,0,0,1,.5,0v2.886a.485.485,0,0,1-.5,0l-.1-.559c-.1-.559-.4-.652-1.706-.652h-.7c-.3,0-.4,0-.4.372v1.769c0,.745,0,1.21.3,1.49.2.186.4.279,1.706.279,1.906,0,2.207-.372,2.809-1.49a.366.366,0,0,1,.5.093,10.214,10.214,0,0,1-.6,2.048H46.249a.268.268,0,0,1,0-.372l.6-.093c.7-.093.8-.093.8-1.583V42.458ZM69.926,47.3v2.421c-.1.186-.3.186-.5.186-.2-.279-.7-.745-1.806-1.955l-3.511-3.724c-1-1.024-1.5-1.583-1.706-1.769v3.631a7.254,7.254,0,0,0,.3,2.793c.1.186.4.279.8.372h.3c.1.093.1.372,0,.372H60.5c-.1-.093-.2-.279,0-.372l.3-.093a.807.807,0,0,0,.7-.279,10.333,10.333,0,0,0,.2-2.793V42.831c0-1.117,0-1.3-.5-1.769a2.752,2.752,0,0,0-.8-.279h-.2c-.1-.093-.1-.372.1-.372a11.612,11.612,0,0,0,1.806,0h1A30.574,30.574,0,0,0,65.512,43.3l1.5,1.49a29.924,29.924,0,0,0,2.207,2.235V43.948a7.254,7.254,0,0,0-.3-2.793c-.1-.186-.4-.279-.8-.372h-.3c-.1-.093-.1-.372,0-.372H71.13a.268.268,0,0,1,0,.372l-.3.093a.62.62,0,0,0-.6.279,10.333,10.333,0,0,0-.2,2.793V47.3Zm18.159-4.749c0-1.3,0-1.49-.6-1.583h-.6c-.1-.093-.1-.372,0-.372,1.1-.093,2.006-.093,3.311-.093a6.453,6.453,0,0,1,3.11.559,2.433,2.433,0,0,1,1.3,2.142c0,2.142-2.207,2.7-3.411,2.7h-.4a.268.268,0,0,1,0-.372A2.164,2.164,0,0,0,92.7,43.2a2.1,2.1,0,0,0-2.207-2.142c-.8,0-.8,0-.8.559v6.145c0,1.49.1,1.49.8,1.583l.6.093c.1.093.1.372,0,.372H86.981a.268.268,0,0,1,0-.372h.2c.7-.093.8-.186.8-1.583V42.551Zm14.246,0c0-1.3,0-1.49-.7-1.583h-.4a.268.268,0,0,1,0-.372c.9-.093,2.207-.093,3.511-.093a8.111,8.111,0,0,1,2.909.466,2.1,2.1,0,0,1,1.3,2.048,2.519,2.519,0,0,1-1.806,2.235c-.1,0-.1.186,0,.279a17.31,17.31,0,0,0,2.709,3.631,1.814,1.814,0,0,0,1,.466.167.167,0,0,1,0,.279c-.2,0-.5.093-1,.093a3.434,3.434,0,0,1-3.11-1.862c-.4-.559-.8-1.4-1.2-1.862-.3-.466-.4-.466-.9-.466s-.5,0-.5.279v1.769c0,1.49.1,1.49.8,1.583h.3c.1.093.1.372,0,.372h-4.013c-.1-.093-.2-.279,0-.372h.3c.7-.093.8-.093.8-1.583V42.551Zm1.806,2.048c0,.466,0,.466.7.466,1.5,0,2.207-.652,2.207-2.048a2,2,0,0,0-2.107-2.048c-.8,0-.8,0-.8.652V44.6Zm22.473.466c0,2.793-2.307,4.842-5.317,4.842-3.411,0-5.417-2.235-5.417-4.749,0-2.886,2.207-4.935,5.417-4.935,3.511,0,5.317,2.328,5.317,4.842m-8.628-.279c0,1.955.9,4.562,3.511,4.562,1.706,0,3.11-1.21,3.11-4,0-2.142-1-4.562-3.411-4.562-1.5,0-3.21,1.024-3.21,4m21.068,1.49c-.6,1.3-1.3,2.886-1.605,3.631a1.064,1.064,0,0,1-.3.093.387.387,0,0,1-.3-.093c-.2-.559-.4-1.21-.7-1.862l-2.608-5.866c-.4-.931-.6-1.117-1.2-1.21l-.4-.093c-.1-.093-.1-.372,0-.372h3.812a.268.268,0,0,1,0,.372l-.4.093c-.3.093-.5.186-.5.279a9.1,9.1,0,0,0,.7,1.862l1.1,2.514c.3.652.7,1.49.8,1.769.8-1.769,1.705-3.724,2.508-5.587.2-.559.2-.652-.3-.745l-.4-.093c-.1-.093-.1-.372,0-.372h3.11a.268.268,0,0,1,0,.372l-.4.093a1.347,1.347,0,0,0-.9.559,20.047,20.047,0,0,0-1.5,3.073l-.5,1.583Zm10.233-3.818c0-1.49-.1-1.49-.8-1.583h-.2c-.1-.093-.1-.372,0-.372H155.1c.1.279.1,1.3.2,1.955-.1.093-.4.186-.5.093-.2-.838-.5-1.117-.9-1.3a4.836,4.836,0,0,0-1.2-.093h-1c-.6,0-.6,0-.6.838V44.32c0,.372,0,.372.4.372h.7c1.3,0,1.605,0,1.705-.652l.1-.466a.485.485,0,0,1,.5,0v2.886a.485.485,0,0,1-.5,0l-.1-.559c-.1-.559-.4-.652-1.705-.652h-.7c-.3,0-.4,0-.4.372v1.769c0,.745,0,1.21.3,1.49.2.186.4.279,1.706.279,1.906,0,2.207-.372,2.809-1.49a.366.366,0,0,1,.5.093,10.213,10.213,0,0,1-.6,2.048h-7.725a.268.268,0,0,1,0-.372l.6-.093c.7-.093.8-.093.8-1.583V42.458ZM171.754,47.3v2.421c-.1.186-.3.186-.5.186-.2-.279-.7-.745-1.806-1.955l-3.511-3.724c-1-1.024-1.5-1.583-1.706-1.769v3.631a7.254,7.254,0,0,0,.3,2.793c.1.186.4.279.8.372h.3c.1.093.1.372,0,.372h-3.311c-.1-.093-.2-.279,0-.372l.3-.093a.807.807,0,0,0,.7-.279,10.334,10.334,0,0,0,.2-2.793V42.831c0-1.117,0-1.3-.5-1.769a2.752,2.752,0,0,0-.8-.279h-.2c-.1-.093-.1-.372.1-.372a11.612,11.612,0,0,0,1.806,0h1A30.577,30.577,0,0,0,167.34,43.3l1.5,1.49a29.931,29.931,0,0,0,2.207,2.235V43.948a7.253,7.253,0,0,0-.3-2.793c-.1-.186-.4-.279-.8-.372h-.3c-.1-.093-.1-.372,0-.372h3.311a.268.268,0,0,1,0,.372l-.3.093a.62.62,0,0,0-.6.279,10.333,10.333,0,0,0-.2,2.793V47.3Zm17.055-4.469a.485.485,0,0,1-.5,0,2.772,2.772,0,0,0-2.909-2.048,3.762,3.762,0,0,0-3.812,4.1c0,2.98,2.006,4.469,3.913,4.469a3.249,3.249,0,0,0,3.11-2.048.366.366,0,0,1,.5.093,5.517,5.517,0,0,1-.7,2.142,4.64,4.64,0,0,0-.5.093A9.4,9.4,0,0,1,185.6,50a7.539,7.539,0,0,1-3.913-.931,4.371,4.371,0,0,1-2.107-3.818,4.526,4.526,0,0,1,1.906-3.724,7.642,7.642,0,0,1,4.214-1.21,20.1,20.1,0,0,1,2.608.279c.2,0,.3.093.4.093a8.645,8.645,0,0,0,.1,2.142m7.725-.372c0-1.49-.1-1.49-.8-1.583h-.2c-.1-.093-.1-.372,0-.372h6.822c.1.279.1,1.3.2,1.955-.1.093-.4.186-.5.093-.2-.838-.5-1.117-.9-1.3a4.836,4.836,0,0,0-1.2-.093h-1c-.6,0-.6,0-.6.838V44.32c0,.372,0,.372.4.372h.7c1.3,0,1.605,0,1.706-.652l.1-.466a.485.485,0,0,1,.5,0v2.886a.485.485,0,0,1-.5,0l-.1-.559c-.1-.559-.4-.652-1.706-.652h-.8c-.3,0-.4,0-.4.372v1.769c0,.745,0,1.21.3,1.49.2.186.4.279,1.705.279,1.906,0,2.207-.372,2.809-1.49a.366.366,0,0,1,.5.093,10.214,10.214,0,0,1-.6,2.048H195.23a.268.268,0,0,1,0-.372l.6-.093c.7-.093.8-.093.8-1.583V42.458Z" transform="translate(0.024)"/>
</svg>
