<svg xmlns="http://www.w3.org/2000/svg" width="250" height="53" viewBox="0 0 250 53">
  <path id="logo" d="M8.717,28.03c0,2.073.1,3.553.7,4.244.5.592,1.2.888,4.509.888,4.609,0,5.31-.2,7.214-4.441a1.072,1.072,0,0,1,1.3.3,36.316,36.316,0,0,1-1.8,6.02c-1.8-.1-5.41-.1-10.019-.1H6.312c-2.1,0-4.208,0-6.011.1-.3-.2-.5-.987-.1-1.184l1.3-.3c2-.3,2.3-.395,2.3-4.639V13.62c0-4.244-.4-4.441-2.3-4.737l-1.2-.2A.8.8,0,0,1,.4,7.5c2.1.1,4.008.1,5.911.1,1.8,0,3.707,0,5.611-.1a.8.8,0,0,1,.1,1.184l-1,.2c-2,.3-2.3.395-2.3,4.737V28.03ZM25.148,10.264c0,3.158-2.805,5.428-5.711,6.119a1.163,1.163,0,0,1-.3-1.086c1.8-.79,3.406-1.974,3.406-3.75,0-1.382-1.3-1.974-2.3-2.171a1.509,1.509,0,0,1-1.3-1.48,2.1,2.1,0,0,1,2.4-1.974,4.33,4.33,0,0,1,3.807,4.343m4.509,7.9C29.657,7.9,37.471,0,48.292,0,60.415,0,66.427,8.587,66.427,17.667c0,10.462-8.015,17.963-18.135,17.963-11.622.1-18.635-8.093-18.635-17.469m31.56,1.086c0-8.488-3.807-17.667-13.826-17.667-5.41,0-12.524,3.652-12.524,15,0,7.6,3.807,17.568,14.127,17.568,6.212-.1,12.223-4.737,12.223-14.9m35.267-4.639a1.073,1.073,0,0,1-1.3.1c-.7-2.566-2.6-6.02-8.115-6.02-5.31,0-10.72,3.75-10.72,12.14,0,8.784,5.611,13.127,11.021,13.127,5.31,0,7.614-3.454,8.717-6.119a.876.876,0,0,1,1.3.2,16.07,16.07,0,0,1-2,6.317c-.5.1-1,.3-1.5.395a24.8,24.8,0,0,1-6.512.987,19.067,19.067,0,0,1-10.72-2.764,12.848,12.848,0,0,1-5.911-11.35,13.456,13.456,0,0,1,5.31-10.955A19.888,19.888,0,0,1,87.567,7.106a32,32,0,0,1,7.214.888c.5.1.8.2,1.2.3a56.382,56.382,0,0,0,.5,6.317m29.055,0a1.073,1.073,0,0,1-1.3.1c-.7-2.566-2.6-6.02-8.115-6.02-5.31,0-10.72,3.75-10.72,12.14,0,8.784,5.611,13.127,11.021,13.127,5.31,0,7.615-3.454,8.717-6.119a.876.876,0,0,1,1.3.2,16.07,16.07,0,0,1-2,6.317c-.5.1-1,.3-1.5.395a24.8,24.8,0,0,1-6.512.987,19.067,19.067,0,0,1-10.72-2.764,12.848,12.848,0,0,1-5.911-11.35,13.456,13.456,0,0,1,5.31-10.955,19.888,19.888,0,0,1,11.522-3.553,32,32,0,0,1,7.214.888c.5.1.8.2,1.2.3a56.383,56.383,0,0,0,.5,6.317m11.322,14.311c0,4.343.4,4.54,2.3,4.737l.9.1a.8.8,0,0,1-.1,1.184c-1.8-.1-3.707-.1-5.611-.1s-3.807,0-5.611.1a.889.889,0,0,1-.1-1.184l.9-.1c2-.3,2.3-.395,2.3-4.737V13.62c0-4.343-.4-4.54-2.3-4.737l-.9-.1a.8.8,0,0,1,.1-1.184c1.8.1,3.707.1,5.611.1,1.8,0,3.707,0,5.611-.1a.889.889,0,0,1,.1,1.184l-.9.1c-2,.3-2.3.395-2.3,4.737v15.3Zm16.932-17.864c0-1.777,0-1.777-1.1-1.777h-2.4c-3.807,0-5.01.493-6.512,3.75-.3.3-1.2.1-1.3-.3.7-2.27,1.3-4.737,1.6-6.218a.771.771,0,0,1,.5-.2c.2,0,.3,0,.4.2.2.987.8,1.086,3.607,1.086h17.133c2,0,2.705-.1,3.206-1.086.2-.1.3-.2.5-.2.3,0,.5.1.5.2a25.406,25.406,0,0,0-.6,6.514,1.047,1.047,0,0,1-1.3.1c-.5-3.257-1.3-4.047-5.811-4.047h-2.4c-1.1,0-1.1.1-1.1,1.777V28.721c0,4.343.4,4.54,2.3,4.737l1.5.2a.8.8,0,0,1-.1,1.184c-2.4-.1-4.308-.1-6.112-.1s-3.807,0-6.512.1c-.3-.2-.4-.987-.1-1.184l1.8-.2c2-.2,2.3-.3,2.3-4.639V11.054Zm21.541,13.719c-1.1,0-1,0-1.4,1.086l-1.7,4.935c-.8,2.467-.7,2.566.9,2.764l1.2.2a.8.8,0,0,1-.1,1.184c-1.3-.1-2.705-.1-4.408-.1-1.4,0-2.705,0-4.108.1-.3-.2-.3-.79,0-1.184l1.3-.2a2.5,2.5,0,0,0,2.3-1.875c.5-1.086,1.2-2.764,2-5.034l5.711-14.706a7.232,7.232,0,0,0,.8-3.06c1.5-.3,2.805-1.974,2.906-1.974a.916.916,0,0,1,.7.3c.7,1.875,1.2,3.75,1.9,5.626L189.361,30.1c1,2.764,1.2,3.06,3.306,3.454l.6.1a.888.888,0,0,1,0,1.184c-1.7-.1-3.306-.1-5.41-.1-1.8,0-3.607.1-5.11.1-.3-.2-.4-.987-.1-1.184l.9-.1c1.5-.2,1.6-.395,1.1-2.171l-2-5.626c-.4-1.086-.5-1.086-1.7-1.086h-5.611Zm5.01-1.875c1.2,0,1.3-.1,1-1.086l-1.8-4.935a18.535,18.535,0,0,0-1.2-3.257c-.2.3-.5,1.283-1.3,3.257l-1.7,4.836c-.5,1.184-.3,1.184.7,1.184Zm40.577,4.935c0,1.283,0,6.317.1,7.3a1.551,1.551,0,0,1-1.4.592c-.7-.888-1.9-2.27-4.909-5.626L204.89,19.048c-2.705-3.06-4.108-4.54-4.809-5.231-.1,0-.1.493-.1,2.665v8.093c0,3.06,0,6.909.8,8.093a2.669,2.669,0,0,0,2.1.987l.9.1c.4.3.3,1.086-.1,1.184-1.5-.1-3.206-.1-4.809-.1-1.8,0-2.906,0-4.308.1a.889.889,0,0,1-.1-1.184l.9-.2c.8-.1,1.5-.3,1.8-.987.5-1.283.5-4.836.5-8.093V14.706c0-3.257,0-3.849-1.4-5.034a5.905,5.905,0,0,0-2.2-.79l-.6-.1c-.3-.3-.3-1.086.2-1.184a43.046,43.046,0,0,0,4.909.1c.9,0,1.9,0,2.906-.1.7,1.777,5.31,7.007,6.713,8.587l4.208,4.441c1.8,1.875,5.611,6.317,6.112,6.514.1-.1.1-.3.1-.987V18.061c0-3.06,0-6.909-.8-8.093a2.517,2.517,0,0,0-2.1-.987l-1-.1c-.4-.3-.3-1.086.1-1.184,1.6.1,3.206.1,4.809.1,1.8,0,2.906,0,4.408-.1a.889.889,0,0,1,.1,1.184l-1,.2c-.8.1-1.5.3-1.8.987-.6,1.283-.6,4.836-.6,8.093v9.672Zm9.618-14.212c0-4.343-.4-4.54-2.3-4.737l-.7-.1a.8.8,0,0,1,.1-1.184c1.6.1,3.607.1,5.41.1h8.015c2.705,0,5.11,0,5.611-.1.2.691.4,3.948.7,5.724a1.244,1.244,0,0,1-1.3.2c-.7-2.369-1.3-3.454-2.6-3.75a12.137,12.137,0,0,0-3.306-.395h-2.805c-1.8,0-1.8.1-1.8,2.467v7.007c0,1.086,0,1.086,1,1.086h2c3.607,0,4.308,0,4.609-1.777l.3-1.382a1.063,1.063,0,0,1,1.3,0c0,1.086-.1,2.566-.1,4.145s.1,3.06.1,4.343a1.063,1.063,0,0,1-1.3,0l-.3-1.678c-.3-1.777-1-1.777-4.609-1.777h-2c-1,0-1,.1-1,1.086v5.231c0,2.073.1,3.553.7,4.244.5.592,1.2.888,4.709.888,5.31.1,6.212-1.086,7.715-4.441a.883.883,0,0,1,1.3.3,28.747,28.747,0,0,1-1.8,6.02c-1.8-.1-5.41-.1-10.32-.1h-4.809c-1.8,0-4.408,0-6.312.1a.889.889,0,0,1-.1-1.184l1.5-.2c2-.2,2.3-.3,2.3-4.737V13.62ZM47.39,45.006c0-1.579-.1-1.579-.8-1.678h-.2c-.1-.1-.1-.395,0-.395H53.2c.1.3.1,1.382.2,2.073-.1.1-.4.2-.5.1-.2-.888-.5-1.184-.9-1.382a4.557,4.557,0,0,0-1.2-.1h-1c-.6,0-.6,0-.6.888V46.98c0,.395,0,.395.4.395h.7c1.3,0,1.6,0,1.7-.691l.1-.493a.461.461,0,0,1,.5,0v3.06a.461.461,0,0,1-.5,0l-.1-.592c-.1-.592-.4-.691-1.7-.691h-.7c-.3,0-.4,0-.4.395v1.875c0,.79,0,1.283.3,1.579.2.2.4.3,1.7.3,1.9,0,2.2-.395,2.805-1.579a.352.352,0,0,1,.5.1,11.333,11.333,0,0,1-.6,2.171H46.188a.3.3,0,0,1,0-.395l.6-.1c.7-.1.8-.1.8-1.678V45.006Zm22.443,5.132V52.7c-.1.2-.3.2-.5.2-.2-.3-.7-.79-1.8-2.073l-3.507-3.948c-1-1.086-1.5-1.678-1.7-1.875v3.849a8.134,8.134,0,0,0,.3,2.961c.1.2.4.3.8.395h.3c.1.1.1.395,0,.395H60.415c-.1-.1-.2-.3,0-.395l.3-.1a.785.785,0,0,0,.7-.3,11.608,11.608,0,0,0,.2-2.961V45.4c0-1.184,0-1.382-.5-1.875a2.644,2.644,0,0,0-.8-.3h-.2c-.1-.1-.1-.395.1-.395a10.927,10.927,0,0,0,1.8,0h1a32.051,32.051,0,0,0,2.4,3.06l1.5,1.579a30.891,30.891,0,0,0,2.2,2.369V46.585a8.134,8.134,0,0,0-.3-2.961c-.1-.2-.4-.3-.8-.395h-.3c-.1-.1-.1-.395,0-.395h3.306a.3.3,0,0,1,0,.395l-.3.1a.608.608,0,0,0-.6.3,11.608,11.608,0,0,0-.2,2.961v3.553ZM87.968,45.1c0-1.382,0-1.579-.6-1.678h-.6c-.1-.1-.1-.395,0-.395,1.1-.1,2-.1,3.306-.1a6.124,6.124,0,0,1,3.106.592,2.6,2.6,0,0,1,1.3,2.27c0,2.27-2.2,2.862-3.406,2.862h-.4a.3.3,0,0,1,0-.395,2.266,2.266,0,0,0,1.9-2.467,2.164,2.164,0,0,0-2.2-2.27c-.8,0-.8,0-.8.592v6.514c0,1.579.1,1.579.8,1.678l.6.1c.1.1.1.395,0,.395H86.865a.3.3,0,0,1,0-.395h.2c.7-.1.8-.2.8-1.678V45.1Zm14.227,0c0-1.382,0-1.579-.7-1.678h-.4a.3.3,0,0,1,0-.395c.9-.1,2.2-.1,3.507-.1a7.678,7.678,0,0,1,2.906.493,2.24,2.24,0,0,1,1.3,2.171,2.634,2.634,0,0,1-1.8,2.369c-.1,0-.1.2,0,.3a18.281,18.281,0,0,0,2.705,3.849,1.761,1.761,0,0,0,1,.493.183.183,0,0,1,0,.3c-.2,0-.5.1-1,.1-1.4,0-2.2-.592-3.106-1.974-.4-.592-.8-1.48-1.2-1.974-.3-.493-.4-.493-.9-.493s-.5,0-.5.3V50.73c0,1.579.1,1.579.8,1.678h.3c.1.1.1.395,0,.395h-4.008c-.1-.1-.2-.3,0-.395h.3c.7-.1.8-.1.8-1.678V45.1Zm1.8,2.171c0,.493,0,.493.7.493,1.5,0,2.2-.691,2.2-2.171a2.061,2.061,0,0,0-2.1-2.171c-.8,0-.8,0-.8.691v3.158Zm22.443.493a5.1,5.1,0,0,1-5.31,5.132,5.139,5.139,0,1,1,0-10.264,4.979,4.979,0,0,1,5.31,5.132m-8.616-.3c0,2.073.9,4.836,3.507,4.836,1.7,0,3.106-1.283,3.106-4.244,0-2.27-1-4.836-3.406-4.836-1.5,0-3.206,1.086-3.206,4.244m21.04,1.579c-.6,1.382-1.3,3.06-1.6,3.849a1.019,1.019,0,0,1-.3.1.372.372,0,0,1-.3-.1c-.2-.592-.4-1.283-.7-1.974l-2.6-6.218c-.4-.987-.6-1.184-1.2-1.283l-.4-.1c-.1-.1-.1-.395,0-.395h3.807a.3.3,0,0,1,0,.395l-.4.1c-.3.1-.5.2-.5.3a10.042,10.042,0,0,0,.7,1.974l1.1,2.665c.3.691.7,1.579.8,1.875.8-1.875,1.7-3.948,2.5-5.922.2-.592.2-.691-.3-.79l-.4-.1c-.1-.1-.1-.395,0-.395h3.106a.3.3,0,0,1,0,.395l-.4.1a1.336,1.336,0,0,0-.9.592,21.805,21.805,0,0,0-1.5,3.257l-.5,1.678Zm10.219-4.047c0-1.579-.1-1.579-.8-1.678h-.2c-.1-.1-.1-.395,0-.395h6.813c.1.3.1,1.382.2,2.073-.1.1-.4.2-.5.1-.2-.888-.5-1.184-.9-1.382a4.558,4.558,0,0,0-1.2-.1h-1c-.6,0-.6,0-.6.888V46.98c0,.395,0,.395.4.395h.7c1.3,0,1.6,0,1.7-.691l.1-.493a.461.461,0,0,1,.5,0v3.06a.461.461,0,0,1-.5,0l-.1-.592c-.1-.592-.4-.691-1.7-.691h-.7c-.3,0-.4,0-.4.395v1.875c0,.79,0,1.283.3,1.579.2.2.4.3,1.7.3,1.9,0,2.2-.395,2.805-1.579a.352.352,0,0,1,.5.1,11.332,11.332,0,0,1-.6,2.171h-7.715a.3.3,0,0,1,0-.395l.6-.1c.7-.1.8-.1.8-1.678V45.006Zm22.443,5.132V52.7c-.1.2-.3.2-.5.2-.2-.3-.7-.79-1.8-2.073l-3.507-3.948c-1-1.086-1.5-1.678-1.7-1.875v3.849a8.134,8.134,0,0,0,.3,2.961c.1.2.4.3.8.395h.3c.1.1.1.395,0,.395h-3.306c-.1-.1-.2-.3,0-.395l.3-.1a.785.785,0,0,0,.7-.3,11.608,11.608,0,0,0,.2-2.961V45.4c0-1.184,0-1.382-.5-1.875a2.644,2.644,0,0,0-.8-.3h-.2c-.1-.1-.1-.395.1-.395a10.927,10.927,0,0,0,1.8,0h1a32.049,32.049,0,0,0,2.4,3.06l1.5,1.579a30.892,30.892,0,0,0,2.2,2.369V46.585a8.135,8.135,0,0,0-.3-2.961c-.1-.2-.4-.3-.8-.395h-.3c-.1-.1-.1-.395,0-.395h3.306a.3.3,0,0,1,0,.395l-.3.1a.608.608,0,0,0-.6.3,11.608,11.608,0,0,0-.2,2.961v3.553ZM188.559,45.4a.461.461,0,0,1-.5,0,2.8,2.8,0,0,0-2.906-2.171c-1.9,0-3.807,1.382-3.807,4.343,0,3.158,2,4.737,3.907,4.737a3.26,3.26,0,0,0,3.106-2.171.352.352,0,0,1,.5.1,6.091,6.091,0,0,1-.7,2.27,4.4,4.4,0,0,0-.5.1,8.893,8.893,0,0,1-2.3.395,7.182,7.182,0,0,1-3.907-.987,4.7,4.7,0,0,1-2.1-4.047,4.891,4.891,0,0,1,1.9-3.948,7.314,7.314,0,0,1,4.208-1.283,18.952,18.952,0,0,1,2.6.3c.2,0,.3.1.4.1a9.72,9.72,0,0,0,.1,2.27m7.715-.395c0-1.579-.1-1.579-.8-1.678h-.2c-.1-.1-.1-.395,0-.395h6.813c.1.3.1,1.382.2,2.073-.1.1-.4.2-.5.1-.2-.888-.5-1.184-.9-1.382a4.557,4.557,0,0,0-1.2-.1h-1c-.6,0-.6,0-.6.888V46.98c0,.395,0,.395.4.395h.7c1.3,0,1.6,0,1.7-.691l.1-.493a.461.461,0,0,1,.5,0v3.06a.461.461,0,0,1-.5,0l-.1-.592c-.1-.592-.4-.691-1.7-.691h-.8c-.3,0-.4,0-.4.395v1.875c0,.79,0,1.283.3,1.579.2.2.4.3,1.7.3,1.9,0,2.2-.395,2.805-1.579a.352.352,0,0,1,.5.1,11.332,11.332,0,0,1-.6,2.171h-7.715a.3.3,0,0,1,0-.395l.6-.1c.7-.1.8-.1.8-1.678V45.006Z" transform="translate(0.024)"/>
</svg>
